<svg xmlns="http://www.w3.org/2000/svg" viewBox="0 0 324 324" role="img" aria-labelledby="nvlt-title nvlt-description">
  <title id="nvlt-title">NVLT logo</title>
  <desc id="nvlt-description">Deck-blue circular Neverlost mark divided into four quadrants with the letters N, V, L, and T.</desc>
  <circle cx="162" cy="162" r="150" fill="#56A4D0" stroke="#FFFFFF" stroke-width="2.2"/>
  <path d="M 162 19.5 V 304.5 M 19.5 162 H 304.5" fill="none" stroke="#FFFFFF" stroke-width="1.7"/>
  <g fill="#FFFFFF" fill-rule="nonzero">
    <path d="M 64.9460 81.7165 L 80.5788 81.7165 L 115.7952 124.9191 L 115.7952 91.6994 C 115.7952 88.1594 115.3987 85.9504 114.6057 85.0724 C 113.5578 83.8830 111.9011 83.2883 109.6355 83.2883 L 107.6389 83.2883 L 107.6389 81.7165 L 127.6897 81.7165 L 127.6897 83.2883 L 125.6506 83.2883 C 123.2151 83.2883 121.4875 84.0246 120.4680 85.4972 C 119.8449 86.4035 119.5334 88.4709 119.5334 91.6994 L 119.5334 140.2546 L 118.0041 140.2546 L 80.0266 93.8659 L 80.0266 129.3371 C 80.0266 132.8771 80.4089 135.0861 81.1736 135.9640 C 82.2497 137.1535 83.9065 137.7482 86.1438 137.7482 L 88.1829 137.7482 L 88.1829 139.3200 L 68.1321 139.3200 L 68.1321 137.7482 L 70.1287 137.7482 C 72.5925 137.7482 74.3342 137.0119 75.3537 135.5392 C 75.9768 134.6330 76.2883 132.5656 76.2883 129.3371 L 76.2883 89.2780 C 74.6174 87.3239 73.3501 86.0353 72.4863 85.4123 C 71.6225 84.7892 70.3552 84.2087 68.6843 83.6706 C 67.8630 83.4157 66.6169 83.2883 64.9460 83.2883 Z"/>
    <path d="M 256.8596 81.7165 L 256.8596 83.2883 C 254.8205 83.6564 253.2771 84.3078 252.2292 85.2424 C 250.7282 86.6301 249.3972 88.7541 248.2361 91.6144 L 228.1428 140.6369 L 226.5710 140.6369 L 204.9910 90.9772 C 203.8865 88.4284 203.1076 86.8708 202.6545 86.3044 C 201.9465 85.4264 201.0757 84.7397 200.0420 84.2441 C 199.0083 83.7485 197.6135 83.4299 195.8577 83.2883 L 195.8577 81.7165 L 219.3918 81.7165 L 219.3918 83.2883 C 216.7297 83.5431 215.0022 83.9963 214.2092 84.6476 C 213.4162 85.2990 213.0198 86.1345 213.0198 87.1540 C 213.0198 88.5700 213.6711 90.7790 214.9739 93.7809 L 229.6296 127.5529 L 243.2234 94.2057 C 244.5544 90.9206 245.2200 88.6408 245.2200 87.3664 C 245.2200 86.5451 244.8093 85.7592 243.9880 85.0087 C 243.1667 84.2582 241.7790 83.7272 239.8249 83.4157 C 239.6833 83.3874 239.4426 83.3449 239.1028 83.2883 L 239.1028 81.7165 Z"/>
    <path d="M 120.7936 249.3898 L 122.1954 249.6872 L 117.2677 265.3200 L 72.6632 265.3200 L 72.6632 263.7482 L 74.8297 263.7482 C 77.2652 263.7482 79.0069 262.9553 80.0548 261.3693 C 80.6495 260.4631 80.9469 258.3674 80.9469 255.0822 L 80.9469 217.9118 C 80.9469 214.3151 80.5504 212.0637 79.7574 211.1574 C 78.6530 209.9113 77.0104 209.2883 74.8297 209.2883 L 72.6632 209.2883 L 72.6632 207.7165 L 98.7462 207.7165 L 98.7462 209.2883 C 95.6876 209.2599 93.5424 209.5432 92.3104 210.1379 C 91.0785 210.7326 90.2360 211.4831 89.7828 212.3893 C 89.3297 213.2956 89.1031 215.4621 89.1031 218.8889 L 89.1031 255.0822 C 89.1031 257.4328 89.3297 259.0471 89.7828 259.9250 C 90.1227 260.5197 90.6466 260.9587 91.3546 261.2419 C 92.0626 261.5251 94.2716 261.6667 97.9816 261.6667 L 102.1871 261.6667 C 106.6051 261.6667 109.7062 261.3410 111.4903 260.6896 C 113.2745 260.0383 114.9029 258.8842 116.3756 257.2275 C 117.8483 255.5707 119.3209 252.9582 120.7936 249.3898 Z"/>
    <path d="M 250.2608 207.7165 L 250.8981 221.2253 L 249.2838 221.2253 C 248.9723 218.8464 248.5475 217.1472 248.0094 216.1276 C 247.1314 214.4850 245.9632 213.2744 244.5047 212.4955 C 243.0462 211.7167 241.1275 211.3273 238.7486 211.3273 L 230.6349 211.3273 L 230.6349 255.3371 C 230.6349 258.8771 231.0172 261.0861 231.7818 261.9641 C 232.8580 263.1535 234.5147 263.7482 236.7521 263.7482 L 238.7486 263.7482 L 238.7486 265.3200 L 214.3224 265.3200 L 214.3224 263.7482 L 216.3614 263.7482 C 218.7970 263.7482 220.5245 263.0119 221.5441 261.5392 C 222.1671 260.6330 222.4786 258.5656 222.4786 255.3371 L 222.4786 211.3273 L 215.5543 211.3273 C 212.8639 211.3273 210.9522 211.5256 209.8194 211.9221 C 208.3468 212.4601 207.0865 213.4938 206.0387 215.0231 C 204.9908 216.5524 204.3678 218.6198 204.1695 221.2253 L 202.5553 221.2253 L 203.2350 207.7165 Z"/>
  </g>
</svg>